<svg width="24" height="24" viewBox="0 0 24 24" fill="none" xmlns="http://www.w3.org/2000/svg">
<path d="M6.04972 10.28C6.22972 10.665 6.66472 11.415 6.66472 11.415L11.7147 3L6.78972 6.47C6.49472 6.67 6.25472 6.935 6.08972 7.245C5.86521 7.71839 5.74583 8.23477 5.73979 8.75867C5.73375 9.28256 5.84119 9.80156 6.05472 10.28H6.04972ZM4.05472 13.05C4.10969 13.8532 4.33417 14.6355 4.71336 15.3457C5.09256 16.0558 5.61787 16.6776 6.25472 17.17L11.7097 21C11.7097 21 8.30472 16.05 5.42972 11.115C5.13761 10.5941 4.94118 10.0251 4.84972 9.435C4.8095 9.16817 4.8095 8.89683 4.84972 8.63L4.62972 9.055C4.33972 9.655 4.13972 10.295 4.04472 10.955C3.98472 11.655 3.99472 12.355 4.05972 13.055L4.05472 13.05ZM17.9497 13.72C17.757 13.3351 17.5519 12.9566 17.3347 12.585L12.2897 21L17.2147 17.535C17.5047 17.335 17.7447 17.07 17.9147 16.755C18.1385 16.2812 18.257 15.7647 18.2622 15.2408C18.2673 14.7169 18.159 14.1981 17.9447 13.72H17.9497ZM19.9447 10.95C19.8898 10.1468 19.6653 9.36445 19.2861 8.65432C18.9069 7.94419 18.3816 7.32244 17.7447 6.83L12.2897 3C12.2897 3 15.6947 7.95 18.5697 12.885C18.8601 13.4062 19.0548 13.9752 19.1447 14.565C19.1847 14.83 19.1847 15.105 19.1447 15.37L19.3647 14.945C19.6597 14.345 19.8547 13.705 19.9547 13.045C20.0147 12.345 20.0047 11.645 19.9397 10.945L19.9447 10.95Z" fill="black"/>
</svg>
