<svg width="95" height="95" viewBox="0 0 95 95" fill="none" xmlns="http://www.w3.org/2000/svg">
<path d="M47.4997 93.4167C72.8587 93.4167 93.4163 72.8591 93.4163 47.5C93.4163 22.1409 72.8587 1.58334 47.4997 1.58334C22.1406 1.58334 1.58301 22.1409 1.58301 47.5C1.58301 72.8591 22.1406 93.4167 47.4997 93.4167Z" fill="black"/>
<path d="M64.9167 31.6667H30.0833C26.5855 31.6667 23.75 34.5022 23.75 38V57C23.75 60.4978 26.5855 63.3333 30.0833 63.3333H64.9167C68.4145 63.3333 71.25 60.4978 71.25 57V38C71.25 34.5022 68.4145 31.6667 64.9167 31.6667Z" fill="white"/>
<path d="M47.4997 55.4166C54.4953 55.4166 60.1663 51.8722 60.1663 47.5C60.1663 43.1277 54.4953 39.5833 47.4997 39.5833C40.5041 39.5833 34.833 43.1277 34.833 47.5C34.833 51.8722 40.5041 55.4166 47.4997 55.4166Z" fill="black"/>
<path d="M47.4997 50.6667C49.2486 50.6667 50.6663 49.2489 50.6663 47.5C50.6663 45.7511 49.2486 44.3333 47.4997 44.3333C45.7508 44.3333 44.333 45.7511 44.333 47.5C44.333 49.2489 45.7508 50.6667 47.4997 50.6667Z" fill="white"/>
</svg>
