<svg width="25" height="24" viewBox="0 0 25 24" fill="none" xmlns="http://www.w3.org/2000/svg">
<path fill-rule="evenodd" clip-rule="evenodd" d="M4.5 6C5.03043 6 5.53914 5.78929 5.91421 5.41421C6.28929 5.03914 6.5 4.53043 6.5 4C6.5 3.46957 6.28929 2.96086 5.91421 2.58579C5.53914 2.21071 5.03043 2 4.5 2C3.96957 2 3.46086 2.21071 3.08579 2.58579C2.71071 2.96086 2.5 3.46957 2.5 4C2.5 4.53043 2.71071 5.03914 3.08579 5.41421C3.46086 5.78929 3.96957 6 4.5 6ZM5.5 21C6.29565 21 7.05871 20.6839 7.62132 20.1213C8.18393 19.5587 8.5 18.7956 8.5 18C8.5 17.2044 8.18393 16.4413 7.62132 15.8787C7.05871 15.3161 6.29565 15 5.5 15C4.70435 15 3.94129 15.3161 3.37868 15.8787C2.81607 16.4413 2.5 17.2044 2.5 18C2.5 18.7956 2.81607 19.5587 3.37868 20.1213C3.94129 20.6839 4.70435 21 5.5 21ZM19.5 22C20.2956 22 21.0587 21.6839 21.6213 21.1213C22.1839 20.5587 22.5 19.7956 22.5 19C22.5 18.2044 22.1839 17.4413 21.6213 16.8787C21.0587 16.3161 20.2956 16 19.5 16C18.7044 16 17.9413 16.3161 17.3787 16.8787C16.8161 17.4413 16.5 18.2044 16.5 19C16.5 19.7956 16.8161 20.5587 17.3787 21.1213C17.9413 21.6839 18.7044 22 19.5 22ZM11.5 14C12.5609 14 13.5783 13.5786 14.3284 12.8284C15.0786 12.0783 15.5 11.0609 15.5 10C15.5 8.93913 15.0786 7.92172 14.3284 7.17157C13.5783 6.42143 12.5609 6 11.5 6C10.4391 6 9.42172 6.42143 8.67157 7.17157C7.92143 7.92172 7.5 8.93913 7.5 10C7.5 11.0609 7.92143 12.0783 8.67157 12.8284C9.42172 13.5786 10.4391 14 11.5 14ZM17.5 6C18.0304 6 18.5391 5.78929 18.9142 5.41421C19.2893 5.03914 19.5 4.53043 19.5 4C19.5 3.46957 19.2893 2.96086 18.9142 2.58579C18.5391 2.21071 18.0304 2 17.5 2C16.9696 2 16.4609 2.21071 16.0858 2.58579C15.7107 2.96086 15.5 3.46957 15.5 4C15.5 4.53043 15.7107 5.03914 16.0858 5.41421C16.4609 5.78929 16.9696 6 17.5 6Z" fill="black" stroke="black" stroke-width="2" stroke-linecap="round" stroke-linejoin="round"/>
<path d="M6 5.5L8 7.5M15.5 6L14.5 7M17.5 16.75L14.5 13M7.5 15.5L9.5 13.5" stroke="black" stroke-width="2" stroke-linecap="round" stroke-linejoin="round"/>
</svg>
