<svg width="25" height="24" viewBox="0 0 25 24" fill="none" xmlns="http://www.w3.org/2000/svg">
<path d="M11.75 7.847C10.814 8.103 10.25 8.822 10.25 9.5C10.25 10.178 10.814 10.897 11.75 11.152V7.847ZM13.25 12.848V16.152C14.186 15.897 14.75 15.178 14.75 14.5C14.75 13.822 14.186 13.103 13.25 12.848Z" fill="black"/>
<path fill-rule="evenodd" clip-rule="evenodd" d="M22.5 12C22.5 17.523 18.023 22 12.5 22C6.977 22 2.5 17.523 2.5 12C2.5 6.477 6.977 2 12.5 2C18.023 2 22.5 6.477 22.5 12ZM12.5 5.25C12.6989 5.25 12.8897 5.32902 13.0303 5.46967C13.171 5.61032 13.25 5.80109 13.25 6V6.317C14.88 6.609 16.25 7.834 16.25 9.5C16.25 9.69891 16.171 9.88968 16.0303 10.0303C15.8897 10.171 15.6989 10.25 15.5 10.25C15.3011 10.25 15.1103 10.171 14.9697 10.0303C14.829 9.88968 14.75 9.69891 14.75 9.5C14.75 8.822 14.186 8.103 13.25 7.847V11.317C14.88 11.609 16.25 12.834 16.25 14.5C16.25 16.166 14.88 17.391 13.25 17.683V18C13.25 18.1989 13.171 18.3897 13.0303 18.5303C12.8897 18.671 12.6989 18.75 12.5 18.75C12.3011 18.75 12.1103 18.671 11.9697 18.5303C11.829 18.3897 11.75 18.1989 11.75 18V17.683C10.12 17.391 8.75 16.166 8.75 14.5C8.75 14.3011 8.82902 14.1103 8.96967 13.9697C9.11032 13.829 9.30109 13.75 9.5 13.75C9.69891 13.75 9.88968 13.829 10.0303 13.9697C10.171 14.1103 10.25 14.3011 10.25 14.5C10.25 15.178 10.814 15.897 11.75 16.152V12.683C10.12 12.391 8.75 11.166 8.75 9.5C8.75 7.834 10.12 6.609 11.75 6.317V6C11.75 5.80109 11.829 5.61032 11.9697 5.46967C12.1103 5.32902 12.3011 5.25 12.5 5.25Z" fill="black"/>
</svg>
