<svg width="25" height="24" viewBox="0 0 25 24" fill="none" xmlns="http://www.w3.org/2000/svg">
<path d="M18.4 17.39C18.14 16.59 17.39 16 16.5 16H15.5V13C15.5 12.7348 15.3946 12.4804 15.2071 12.2929C15.0196 12.1054 14.7652 12 14.5 12H8.5V10H10.5C10.7652 10 11.0196 9.89464 11.2071 9.70711C11.3946 9.51957 11.5 9.26522 11.5 9V7H13.5C14.0304 7 14.5391 6.78929 14.9142 6.41421C15.2893 6.03914 15.5 5.53043 15.5 5V4.59C16.6965 5.07237 17.7582 5.83747 18.5944 6.81983C19.4306 7.8022 20.0163 8.97255 20.3013 10.2307C20.5864 11.4889 20.5623 12.7974 20.2312 14.0442C19.9001 15.291 19.2717 16.4391 18.4 17.39ZM11.5 19.93C7.55 19.44 4.5 16.08 4.5 12C4.5 11.38 4.58 10.78 4.71 10.21L9.5 15V16C9.5 16.5304 9.71071 17.0391 10.0858 17.4142C10.4609 17.7893 10.9696 18 11.5 18M12.5 2C11.1868 2 9.88642 2.25866 8.67317 2.7612C7.45991 3.26375 6.35752 4.00035 5.42893 4.92893C3.55357 6.8043 2.5 9.34784 2.5 12C2.5 14.6522 3.55357 17.1957 5.42893 19.0711C6.35752 19.9997 7.45991 20.7362 8.67317 21.2388C9.88642 21.7413 11.1868 22 12.5 22C15.1522 22 17.6957 20.9464 19.5711 19.0711C21.4464 17.1957 22.5 14.6522 22.5 12C22.5 10.6868 22.2413 9.38642 21.7388 8.17317C21.2362 6.95991 20.4997 5.85752 19.5711 4.92893C18.6425 4.00035 17.5401 3.26375 16.3268 2.7612C15.1136 2.25866 13.8132 2 12.5 2Z" fill="black"/>
</svg>
