<svg width="25" height="24" viewBox="0 0 25 24" fill="none" xmlns="http://www.w3.org/2000/svg">
<path d="M5.5 2C4.70435 2 3.94129 2.31607 3.37868 2.87868C2.81607 3.44129 2.5 4.20435 2.5 5V22H19.5C20.2956 22 21.0587 21.6839 21.6213 21.1213C22.1839 20.5587 22.5 19.7956 22.5 19V9C22.5 8.20435 22.1839 7.44129 21.6213 6.87868C21.0587 6.31607 20.2956 6 19.5 6H5.5C5.23478 6 4.98043 5.89464 4.79289 5.70711C4.60536 5.51957 4.5 5.26522 4.5 5C4.5 4.73478 4.60536 4.48043 4.79289 4.29289C4.98043 4.10536 5.23478 4 5.5 4H20.5V2H5.5ZM18.5 15H15.5V13H18.5V15Z" fill="black"/>
</svg>
